<?xml version="1.0" encoding="utf-8"?>
<!-- Generator: Adobe Illustrator 21.0.0, SVG Export Plug-In . SVG Version: 6.00 Build 0)  -->
<svg version="1.1" id="Camada_1" xmlns="http://www.w3.org/2000/svg" xmlns:xlink="http://www.w3.org/1999/xlink" x="0px" y="0px"
	 viewBox="0 0 209 79" style="enable-background:new 0 0 209 79;" xml:space="preserve" width="209" height="79">
<style type="text/css">
	.st0{fill:none;}
	.st1{fill:#21354A;}
	.st2{fill:#83AF43;}
	.st3{fill:#DFA447;}
	.st4{fill:#2E9CCC;}
</style>
<g>
	<path class="st0" d="M176.5,66.6h-2c-0.8,0-1.2,0.4-1.2,1.3v3.3c0,0.8,0.4,1.3,1.2,1.3h0.8c0.9,0,1.4-0.5,1.4-1.4v-4.2
		C176.7,66.7,176.6,66.6,176.5,66.6z"/>
	<path class="st0" d="M94.6,66.6h-0.9c-0.4,0-0.7,0.1-0.9,0.3c-0.2,0.2-0.3,0.5-0.3,0.9v1.1c0,0.1,0.1,0.2,0.2,0.2h3
		c0.1,0,0.2-0.1,0.2-0.2v-1.1c0-0.4-0.1-0.7-0.3-0.9C95.3,66.7,95,66.6,94.6,66.6z"/>
	<path class="st0" d="M120.4,66.6h-0.9c-0.4,0-0.7,0.1-0.9,0.3c-0.2,0.2-0.3,0.5-0.3,0.9v1.1c0,0.1,0.1,0.2,0.2,0.2h3
		c0.1,0,0.2-0.1,0.2-0.2v-1.1c0-0.4-0.1-0.7-0.3-0.9C121.1,66.7,120.8,66.6,120.4,66.6z"/>
	<path class="st0" d="M65.5,66.6h-0.9c-0.4,0-0.7,0.1-0.9,0.3c-0.2,0.2-0.3,0.5-0.3,0.9v1.1c0,0.1,0.1,0.2,0.2,0.2h3
		c0.1,0,0.2-0.1,0.2-0.2v-1.1c0-0.4-0.1-0.7-0.3-0.9C66.3,66.7,65.9,66.6,65.5,66.6z"/>
	<path class="st0" d="M136.2,70.1v1c0,0.8,0.4,1.2,1.3,1.2h0.9c0.6,0,1-0.3,1.1-0.9l-2.3-2.7C136.5,68.9,136.2,69.3,136.2,70.1z"/>
	<path class="st0" d="M17.5,66.6h-0.9c-0.4,0-0.7,0.1-0.9,0.3c-0.2,0.2-0.3,0.5-0.3,0.9v1.1c0,0.1,0.1,0.2,0.2,0.2h3
		c0.1,0,0.2-0.1,0.2-0.2v-1.1c0-0.4-0.1-0.7-0.3-0.9C18.2,66.7,17.9,66.6,17.5,66.6z"/>
	<path class="st0" d="M180.7,40C180.7,40.3,180.9,40.1,180.7,40L180.7,40z"/>
	<path class="st0" d="M104,66.6h-2c-0.8,0-1.2,0.4-1.2,1.3v3.3c0,0.8,0.4,1.3,1.2,1.3h0.8c0.9,0,1.4-0.5,1.4-1.4v-4.2
		C104.2,66.7,104.1,66.6,104,66.6z"/>
	<path class="st0" d="M195.7,66.6h-0.9c-0.4,0-0.7,0.1-0.9,0.3c-0.2,0.2-0.3,0.5-0.3,0.9v1.1c0,0.1,0.1,0.2,0.2,0.2h3
		c0.1,0,0.2-0.1,0.2-0.2v-1.1c0-0.4-0.1-0.7-0.3-0.9C196.5,66.7,196.2,66.6,195.7,66.6z"/>
	<path class="st0" d="M44.6,66.6h-2c-0.8,0-1.2,0.4-1.2,1.3v3.3c0,0.8,0.4,1.3,1.2,1.3h0.8c0.9,0,1.4-0.5,1.4-1.4v-4.2
		C44.8,66.7,44.7,66.6,44.6,66.6z"/>
	<g>
		<path class="st1" d="M105.4,25.3c0-11.9-9.6-21.5-21.5-21.5H24.7c-11.9,0-21.5,9.6-21.5,21.5v3.9c0,11.9,9.6,21.5,21.5,21.5h59.2
			c11.9,0,21.5-9.6,21.5-21.5V25.3z"/>
		<path class="st1" d="M205.1,30.1c-1.1-2.2-2.2-2.4-1.2-4.7c0.7-1.8,1.5-3.2,1.8-5.2c1-6.7-3-13.2-9.4-15.6c-3.2-1.2-6.5-1-9.8-1
			c-10.4,0-20.8,0-31.2,0c-8,0-17.8-1.1-21.5,7.9c-4.6,11.1,8.5,18.4,15.7,24.2c0.8,0.7,4.5,2.7,1.9,4.1c-0.6,0.3-2.4,0-3.1,0
			c-5.1,0-10.1,0-15.2,0c-4.1,0-8.2-0.2-12.2,0c0-0.2,0-0.5,0-0.6c0.3-1.8,0-4,0-5.8c0-5.4,0-10.8,0-16.2c0-3.4,0.4-7.2,0-10.6
			c-0.5-4.1-5.3-3.4-8.5-3.2c-3.1,0.2-3.5,2.3-3.5,4.9c0,9.8,0,19.6,0,29.4c0,2.8-0.4,6.1,0.1,8.9c0.7,3.9,4.1,4.9,7.5,4.9
			c9.6,0,19.2,0,28.9,0c3.2,0,6.8,0.4,9.9-0.6c5.9-1.8,10-7.7,9.1-13.8c-0.8-5.2-4.5-8.1-8.3-11.1c-2.1-1.7-4.2-3.4-6.3-5.1
			c-1-0.8-3.7-2.3-4.3-3.5c-1.7-3.2,5.3-2.2,6.6-2.2c5.1,0,10.2,0,15.3,0c5.3,0,10.6,0,15.8,0c2.4,0,5.4-0.5,7.7,0
			c5.5,1.2,2.8,4.5,0.7,6c-1,0.7-2,1.2-2.7,2.2c-1.7,2.2-1.4,5.3,0.5,7.3c1.6,1.7,5.4,2.9,5.4,5.7c-0.1,3.8-5.3,3.4-7.8,3.4
			c-2,0-4.1,0.2-6.1,0c0-0.1,0-0.3,0.1-0.5c0.3-1.1,0-2.7,0-3.9c0-2.6,0-5.2,0-7.8c0-1.3,0.2-2.7-0.7-3.7c-1.2-1.5-3.3-1.2-5-1.2
			c-1.7,0-4-0.4-5.4,0.9c-2.1,2.1-0.9,8.1-0.9,10.6c0,3.9-0.6,8.4,0.1,12.3c0.9,4.8,5.4,4.9,9.2,4.9c4.1,0,8.3,0,12.4,0
			c7.2-0.3,14.3-5.1,15.8-12.5C206.9,36,206.4,32.9,205.1,30.1z M180.7,40C180.9,40.1,180.7,40.3,180.7,40L180.7,40z"/>
		<path class="st1" d="M9.1,62.9H7.3c-0.8,0-1.5,0.2-1.9,0.7s-0.7,1.1-0.7,1.9v5.6c0,0.8,0.2,1.5,0.7,1.9c0.5,0.5,1.1,0.7,1.9,0.7
			h1.8c0.8,0,1.5-0.2,1.9-0.7c0.5-0.5,0.7-1.1,0.7-1.9v-2.8c0-0.2-0.1-0.4-0.4-0.4H8.5c-0.2,0-0.3,0.1-0.3,0.3v0.9
			c0,0.2,0.1,0.3,0.3,0.3h1.4c0.1,0,0.2,0.1,0.2,0.2v1.5c0,0.8-0.4,1.3-1.2,1.3H7.5c-0.8,0-1.2-0.4-1.2-1.3v-5.5
			c0-0.8,0.4-1.3,1.2-1.3h1.3c0.8,0,1.2,0.4,1.2,1.3v0.5c0,0.2,0.1,0.3,0.3,0.3h1.1c0.2,0,0.3-0.1,0.3-0.3v-0.6
			c0-0.8-0.2-1.5-0.7-1.9S9.9,62.9,9.1,62.9z"/>
		<path class="st1" d="M17.7,65.2h-1.4c-0.8,0-1.5,0.2-1.9,0.7s-0.7,1.1-0.7,1.9v3.4c0,0.8,0.2,1.5,0.7,1.9c0.5,0.5,1.1,0.7,1.9,0.7
			H20c0.2,0,0.3-0.1,0.3-0.3v-0.8c0-0.2-0.1-0.3-0.3-0.3h-3.4c-0.8,0-1.2-0.4-1.2-1.2v-0.7c0-0.1,0.1-0.2,0.2-0.2H20
			c0.2,0,0.3-0.1,0.3-0.3v-2.2c0-0.8-0.2-1.5-0.7-1.9C19.2,65.4,18.5,65.2,17.7,65.2z M18.7,68.9c0,0.1-0.1,0.2-0.2,0.2h-3
			c-0.1,0-0.2-0.1-0.2-0.2v-1.1c0-0.4,0.1-0.7,0.3-0.9c0.2-0.2,0.5-0.3,0.9-0.3h0.9c0.4,0,0.7,0.1,0.9,0.3c0.2,0.2,0.3,0.5,0.3,0.9
			V68.9z"/>
		<path class="st1" d="M26.2,72.4h-0.7c-0.8,0-1.3-0.4-1.3-1.2v-4.4c0-0.1,0.1-0.2,0.2-0.2h1.6c0.2,0,0.3-0.1,0.3-0.3v-0.9
			c0-0.2-0.1-0.3-0.3-0.3h-1.6c-0.1,0-0.2-0.1-0.2-0.2v-1.5c0-0.2-0.1-0.3-0.3-0.3h-1.1c-0.2,0-0.3,0.1-0.3,0.3V65
			c0,0.1-0.1,0.2-0.2,0.2h-0.8c-0.2,0-0.3,0.1-0.3,0.3v0.9c0,0.1,0,0.2,0.1,0.2c0,0,0.1,0.1,0.2,0.1h0.8c0.1,0,0.2,0.1,0.2,0.2v4.4
			c0,0.8,0.2,1.5,0.7,1.9c0.5,0.5,1.1,0.7,2,0.7h0.9c0.2,0,0.3-0.1,0.3-0.3v-0.9C26.5,72.5,26.4,72.4,26.2,72.4z"/>
		<path class="st1" d="M38,62.9h-5.3c-0.2,0-0.3,0.1-0.3,0.3v10.3c0,0.2,0.1,0.3,0.3,0.3h1.1c0.2,0,0.3-0.1,0.3-0.3v-4
			c0-0.1,0.1-0.2,0.2-0.2h3.3c0.2,0,0.3-0.1,0.3-0.3v-0.8c0-0.2-0.1-0.3-0.3-0.3h-3.3c-0.1,0-0.2-0.1-0.2-0.2v-3.2
			c0-0.1,0.1-0.2,0.2-0.2H38c0.2,0,0.3-0.1,0.3-0.3v-0.9C38.3,63,38.2,62.9,38,62.9z"/>
		<path class="st1" d="M46.1,65.2h-3.8c-0.8,0-1.5,0.2-1.9,0.7s-0.7,1.1-0.7,1.9v3.4c0,0.8,0.2,1.5,0.7,1.9c0.5,0.5,1.1,0.7,1.9,0.7
			H43c0.9,0,1.4-0.3,1.7-0.9h0.1v0.6c0,0.2,0.1,0.3,0.3,0.3h1.1c0.2,0,0.3-0.1,0.3-0.3v-8.1C46.5,65.3,46.3,65.2,46.1,65.2z
			 M44.8,70.9c0,1-0.5,1.4-1.4,1.4h-0.8c-0.8,0-1.2-0.4-1.2-1.3v-3.3c0-0.8,0.4-1.3,1.2-1.3h2c0.1,0,0.2,0.1,0.2,0.2V70.9z"/>
		<path class="st1" d="M52.6,69.3l-1.9-0.9c-0.6-0.3-0.9-0.6-0.9-0.9v-0.2c0-0.2,0.1-0.3,0.3-0.5c0.2-0.1,0.4-0.2,0.8-0.2h2.5
			c0.2,0,0.3-0.1,0.3-0.3v-0.8c0-0.2-0.1-0.3-0.3-0.3h-2.8c-1.6,0-2.4,0.7-2.4,2.2c0,0.5,0.1,1,0.4,1.3c0.3,0.3,0.7,0.6,1.3,0.9
			l1.8,0.9c0.5,0.2,0.8,0.6,0.8,1v0.2c0,0.5-0.4,0.8-1.1,0.8h-2.8c-0.2,0-0.3,0.1-0.3,0.3v0.8c0,0.2,0.1,0.3,0.3,0.3h3.1
			c1.7,0,2.5-0.7,2.5-2.2c0-0.6-0.1-1-0.3-1.4S53.2,69.6,52.6,69.3z"/>
		<path class="st1" d="M60,72.4h-0.7c-0.8,0-1.3-0.4-1.3-1.2v-4.4c0-0.1,0.1-0.2,0.2-0.2h1.6c0.2,0,0.3-0.1,0.3-0.3v-0.9
			c0-0.2-0.1-0.3-0.3-0.3h-1.6c-0.1,0-0.2-0.1-0.2-0.2v-1.5c0-0.2-0.1-0.3-0.3-0.3h-1.1c-0.2,0-0.3,0.1-0.3,0.3V65
			c0,0.1-0.1,0.2-0.2,0.2h-0.8c-0.2,0-0.3,0.1-0.3,0.3v0.9c0,0.1,0,0.2,0.1,0.2c0,0,0.1,0.1,0.2,0.1h0.8c0.1,0,0.2,0.1,0.2,0.2v4.4
			c0,0.8,0.2,1.5,0.7,1.9c0.5,0.5,1.1,0.7,2,0.7H60c0.2,0,0.3-0.1,0.3-0.3v-0.9C60.3,72.5,60.2,72.4,60,72.4z"/>
		<path class="st1" d="M65.7,65.2h-1.4c-0.8,0-1.5,0.2-1.9,0.7s-0.7,1.1-0.7,1.9v3.4c0,0.8,0.2,1.5,0.7,1.9c0.5,0.5,1.1,0.7,1.9,0.7
			H68c0.2,0,0.3-0.1,0.3-0.3v-0.8c0-0.2-0.1-0.3-0.3-0.3h-3.4c-0.8,0-1.2-0.4-1.2-1.2v-0.7c0-0.1,0.1-0.2,0.2-0.2h4.5
			c0.2,0,0.3-0.1,0.3-0.3v-2.2c0-0.8-0.2-1.5-0.7-1.9C67.2,65.4,66.6,65.2,65.7,65.2z M66.7,68.9c0,0.1-0.1,0.2-0.2,0.2h-3
			c-0.1,0-0.2-0.1-0.2-0.2v-1.1c0-0.4,0.1-0.7,0.3-0.9c0.2-0.2,0.5-0.3,0.9-0.3h0.9c0.4,0,0.7,0.1,0.9,0.3c0.2,0.2,0.3,0.5,0.3,0.9
			V68.9z"/>
		<path class="st1" d="M74.3,65.2h-0.6c-0.4,0-0.8,0.1-1.1,0.3c-0.3,0.2-0.5,0.4-0.7,0.7h-0.1v-0.6c0-0.2-0.1-0.3-0.3-0.3h-1.1
			c-0.2,0-0.3,0.1-0.3,0.3v8.1c0,0.2,0.1,0.3,0.3,0.3h1.1c0.2,0,0.3-0.1,0.3-0.3v-5.4c0-1,0.5-1.5,1.4-1.5h1c0.2,0,0.3-0.1,0.3-0.3
			v-0.9C74.6,65.3,74.5,65.2,74.3,65.2z"/>
		<path class="st1" d="M77.1,71.2H76c-0.2,0-0.3,0.1-0.3,0.3v3.9c0,0.2,0.1,0.3,0.2,0.3c0.1,0,0.2-0.1,0.3-0.2l0.9-1.6
			c0.2-0.4,0.3-0.7,0.3-1v-1.3C77.4,71.3,77.3,71.2,77.1,71.2z"/>
		<path class="st1" d="M89.3,72.3h-3.9c-0.1,0-0.2-0.1-0.2-0.2v-9c0-0.2-0.1-0.3-0.3-0.3h-1.1c-0.2,0-0.3,0.1-0.3,0.3v10.3
			c0,0.2,0.1,0.3,0.3,0.3h5.5c0.2,0,0.3-0.1,0.3-0.3v-0.9C89.6,72.4,89.5,72.3,89.3,72.3z"/>
		<path class="st1" d="M94.8,65.2h-1.4c-0.8,0-1.5,0.2-1.9,0.7s-0.7,1.1-0.7,1.9v3.4c0,0.8,0.2,1.5,0.7,1.9c0.5,0.5,1.1,0.7,1.9,0.7
			h3.7c0.2,0,0.3-0.1,0.3-0.3v-0.8c0-0.2-0.1-0.3-0.3-0.3h-3.4c-0.8,0-1.2-0.4-1.2-1.2v-0.7c0-0.1,0.1-0.2,0.2-0.2h4.5
			c0.2,0,0.3-0.1,0.3-0.3v-2.2c0-0.8-0.2-1.5-0.7-1.9C96.3,65.4,95.6,65.2,94.8,65.2z M95.8,68.9c0,0.1-0.1,0.2-0.2,0.2h-3
			c-0.1,0-0.2-0.1-0.2-0.2v-1.1c0-0.4,0.1-0.7,0.3-0.9c0.2-0.2,0.5-0.3,0.9-0.3h0.9c0.4,0,0.7,0.1,0.9,0.3c0.2,0.2,0.3,0.5,0.3,0.9
			V68.9z"/>
		<path class="st1" d="M105.6,65.2h-3.8c-0.8,0-1.5,0.2-1.9,0.7c-0.5,0.5-0.7,1.1-0.7,1.9v3.4c0,0.8,0.2,1.5,0.7,1.9
			c0.5,0.5,1.1,0.7,1.9,0.7h0.7c0.9,0,1.4-0.3,1.7-0.9h0.1v0.6c0,0.2,0.1,0.3,0.3,0.3h1.1c0.2,0,0.3-0.1,0.3-0.3v-8.1
			C105.9,65.3,105.8,65.2,105.6,65.2z M104.2,70.9c0,1-0.5,1.4-1.4,1.4H102c-0.8,0-1.2-0.4-1.2-1.3v-3.3c0-0.8,0.4-1.3,1.2-1.3h2
			c0.1,0,0.2,0.1,0.2,0.2V70.9z"/>
		<path class="st1" d="M112.1,65.2h-0.7c-0.9,0-1.4,0.3-1.7,0.9h-0.1v-0.6c0-0.2-0.1-0.3-0.3-0.3h-1.1c-0.2,0-0.3,0.1-0.3,0.3v8.1
			c0,0.2,0.1,0.3,0.3,0.3h1.1c0.2,0,0.3-0.1,0.3-0.3V68c0-1,0.5-1.4,1.4-1.4h0.8c0.8,0,1.2,0.4,1.2,1.3v5.7c0,0.2,0.1,0.3,0.3,0.3
			h1.1c0.2,0,0.3-0.1,0.3-0.3v-5.7c0-0.8-0.2-1.5-0.7-1.9C113.6,65.4,113,65.2,112.1,65.2z"/>
		<path class="st1" d="M120.6,65.2h-1.4c-0.8,0-1.5,0.2-1.9,0.7c-0.5,0.5-0.7,1.1-0.7,1.9v3.4c0,0.8,0.2,1.5,0.7,1.9
			c0.5,0.5,1.1,0.7,1.9,0.7h3.7c0.2,0,0.3-0.1,0.3-0.3v-0.8c0-0.2-0.1-0.3-0.3-0.3h-3.4c-0.8,0-1.2-0.4-1.2-1.2v-0.7
			c0-0.1,0.1-0.2,0.2-0.2h4.5c0.2,0,0.3-0.1,0.3-0.3v-2.2c0-0.8-0.2-1.5-0.7-1.9C122.1,65.4,121.4,65.2,120.6,65.2z M121.6,68.9
			c0,0.1-0.1,0.2-0.2,0.2h-3c-0.1,0-0.2-0.1-0.2-0.2v-1.1c0-0.4,0.1-0.7,0.3-0.9c0.2-0.2,0.5-0.3,0.9-0.3h0.9c0.4,0,0.7,0.1,0.9,0.3
			c0.2,0.2,0.3,0.5,0.3,0.9V68.9z"/>
		<path class="st1" d="M129.2,65.2h-0.6c-0.4,0-0.8,0.1-1.1,0.3c-0.3,0.2-0.5,0.4-0.7,0.7h-0.1v-0.6c0-0.2-0.1-0.3-0.3-0.3h-1.1
			c-0.2,0-0.3,0.1-0.3,0.3v8.1c0,0.2,0.1,0.3,0.3,0.3h1.1c0.2,0,0.3-0.1,0.3-0.3v-5.4c0-1,0.5-1.5,1.4-1.5h1c0.2,0,0.3-0.1,0.3-0.3
			v-0.9C129.5,65.3,129.4,65.2,129.2,65.2z"/>
		<path class="st1" d="M140.2,70h2.7c0.2,0,0.3-0.1,0.3-0.3v-0.9c0-0.2-0.1-0.3-0.3-0.3H139l-0.9-1c-0.5-0.6-0.7-1.1-0.7-1.6v-0.4
			c0-0.8,0.4-1.2,1.2-1.2h0.2c0.8,0,1.1,0.4,1.1,1.2v0.6c0,0.2,0.1,0.3,0.3,0.3h1.1c0.2,0,0.3-0.1,0.3-0.3v-0.7
			c0-0.8-0.2-1.5-0.7-1.9c-0.5-0.5-1.1-0.7-1.9-0.7h-0.5c-0.8,0-1.5,0.2-2,0.7s-0.7,1.1-0.7,1.9v0.4c0,0.7,0.2,1.4,0.7,2
			c-0.6,0-1,0.3-1.3,0.7c-0.3,0.4-0.4,0.9-0.4,1.5v1.2c0,0.8,0.2,1.5,0.7,1.9c0.5,0.5,1.1,0.7,1.9,0.7h1.2c1.1,0,1.8-0.4,2.1-1.2
			l0.8,1c0.1,0.1,0.3,0.2,0.5,0.2h1.4c0.1,0,0.1,0,0.1-0.1c0-0.1,0-0.1,0-0.2L140.2,70z M138.4,72.3h-0.9c-0.8,0-1.3-0.4-1.3-1.2v-1
			c0-0.8,0.3-1.3,1-1.3l2.3,2.7C139.4,72.1,139,72.3,138.4,72.3z"/>
		<path class="st1" d="M155.2,68.3c-0.3-0.2-0.7-0.3-1.1-0.4c-0.4-0.1-0.8-0.2-1.2-0.3c-0.4-0.1-0.7-0.1-1.1-0.2
			c-0.7-0.2-1.1-0.5-1.1-1v-0.5c0-0.5,0.1-0.9,0.3-1.1c0.2-0.2,0.6-0.3,1-0.3h1.1c0.5,0,0.8,0.1,1,0.3c0.2,0.2,0.3,0.6,0.3,1v0.2
			c0,0.2,0.1,0.3,0.3,0.3h1.1c0.2,0,0.3-0.1,0.3-0.3v-0.4c0-0.8-0.2-1.5-0.7-1.9c-0.5-0.5-1.1-0.7-2-0.7h-1.8
			c-0.8,0-1.5,0.2-1.9,0.7c-0.5,0.5-0.7,1.1-0.7,1.9v0.7c0,0.6,0.1,1.2,0.4,1.6c0.3,0.4,0.6,0.7,1,0.8s0.9,0.3,1.3,0.4
			c0.5,0.1,0.9,0.2,1.3,0.3c0.4,0.1,0.7,0.2,1,0.4c0.3,0.2,0.4,0.5,0.4,0.9V71c0,0.5-0.1,0.9-0.3,1.1c-0.2,0.2-0.6,0.3-1.1,0.3h-1.2
			c-0.5,0-0.8-0.1-1-0.3c-0.2-0.2-0.3-0.6-0.3-1v-0.3c0-0.2-0.1-0.3-0.3-0.3h-1.1c-0.2,0-0.3,0.1-0.3,0.3v0.4c0,0.8,0.2,1.5,0.7,1.9
			c0.5,0.5,1.1,0.7,1.9,0.7h1.9c0.8,0,1.5-0.2,1.9-0.7c0.5-0.5,0.7-1.1,0.7-1.9v-0.7c0-0.5-0.1-1-0.3-1.4
			C155.8,68.7,155.6,68.5,155.2,68.3z"/>
		<path class="st1" d="M167.2,65.2h-0.5c-0.4,0-0.8,0.1-1.2,0.3c-0.4,0.2-0.7,0.5-0.8,0.8c-0.4-0.7-1.1-1.1-2.1-1.1H162
			c-0.9,0-1.5,0.3-1.8,0.9h-0.1v-0.6c0-0.2-0.1-0.3-0.3-0.3h-1.1c-0.2,0-0.3,0.1-0.3,0.3v8.1c0,0.2,0.1,0.3,0.3,0.3h1.1
			c0.2,0,0.3-0.1,0.3-0.3V68c0-1,0.5-1.4,1.4-1.4h0.6c0.8,0,1.2,0.4,1.2,1.3v5.7c0,0.2,0.1,0.3,0.3,0.3h1.1c0.2,0,0.3-0.1,0.3-0.3
			v-5.4c0-1,0.5-1.5,1.4-1.5h0.5c0.8,0,1.2,0.4,1.2,1.3v5.7c0,0.2,0.1,0.3,0.3,0.3h1.1c0.2,0,0.3-0.1,0.3-0.3v-5.7
			c0-0.8-0.2-1.5-0.7-1.9C168.7,65.4,168,65.2,167.2,65.2z"/>
		<path class="st1" d="M178,65.2h-3.8c-0.8,0-1.5,0.2-1.9,0.7s-0.7,1.1-0.7,1.9v3.4c0,0.8,0.2,1.5,0.7,1.9c0.5,0.5,1.1,0.7,1.9,0.7
			h0.7c0.9,0,1.4-0.3,1.7-0.9h0.1v0.6c0,0.2,0.1,0.3,0.3,0.3h1.1c0.2,0,0.3-0.1,0.3-0.3v-8.1C178.4,65.3,178.3,65.2,178,65.2z
			 M176.7,70.9c0,1-0.5,1.4-1.4,1.4h-0.8c-0.8,0-1.2-0.4-1.2-1.3v-3.3c0-0.8,0.4-1.3,1.2-1.3h2c0.1,0,0.2,0.1,0.2,0.2V70.9z"/>
		<path class="st1" d="M184.5,65.2h-0.6c-0.4,0-0.8,0.1-1.1,0.3c-0.3,0.2-0.5,0.4-0.7,0.7h-0.1v-0.6c0-0.2-0.1-0.3-0.3-0.3h-1.1
			c-0.2,0-0.3,0.1-0.3,0.3v8.1c0,0.2,0.1,0.3,0.3,0.3h1.1c0.2,0,0.3-0.1,0.3-0.3v-5.4c0-1,0.5-1.5,1.4-1.5h1c0.2,0,0.3-0.1,0.3-0.3
			v-0.9C184.8,65.3,184.7,65.2,184.5,65.2z"/>
		<path class="st1" d="M190.2,72.4h-0.7c-0.8,0-1.3-0.4-1.3-1.2v-4.4c0-0.1,0.1-0.2,0.2-0.2h1.6c0.2,0,0.3-0.1,0.3-0.3v-0.9
			c0-0.2-0.1-0.3-0.3-0.3h-1.6c-0.1,0-0.2-0.1-0.2-0.2v-1.5c0-0.2-0.1-0.3-0.3-0.3h-1.1c-0.2,0-0.3,0.1-0.3,0.3V65
			c0,0.1-0.1,0.2-0.2,0.2h-0.8c-0.2,0-0.3,0.1-0.3,0.3v0.9c0,0.1,0,0.2,0.1,0.2c0,0,0.1,0.1,0.2,0.1h0.8c0.1,0,0.2,0.1,0.2,0.2v4.4
			c0,0.8,0.2,1.5,0.7,1.9c0.5,0.5,1.1,0.7,2,0.7h0.9c0.2,0,0.3-0.1,0.3-0.3v-0.9C190.5,72.5,190.4,72.4,190.2,72.4z"/>
		<path class="st1" d="M195.9,65.2h-1.4c-0.8,0-1.5,0.2-1.9,0.7s-0.7,1.1-0.7,1.9v3.4c0,0.8,0.2,1.5,0.7,1.9
			c0.5,0.5,1.1,0.7,1.9,0.7h3.7c0.2,0,0.3-0.1,0.3-0.3v-0.8c0-0.2-0.1-0.3-0.3-0.3h-3.4c-0.8,0-1.2-0.4-1.2-1.2v-0.7
			c0-0.1,0.1-0.2,0.2-0.2h4.5c0.2,0,0.3-0.1,0.3-0.3v-2.2c0-0.8-0.2-1.5-0.7-1.9S196.8,65.2,195.9,65.2z M196.9,68.9
			c0,0.1-0.1,0.2-0.2,0.2h-3c-0.1,0-0.2-0.1-0.2-0.2v-1.1c0-0.4,0.1-0.7,0.3-0.9c0.2-0.2,0.5-0.3,0.9-0.3h0.9c0.4,0,0.7,0.1,0.9,0.3
			c0.2,0.2,0.3,0.5,0.3,0.9V68.9z"/>
		<path class="st1" d="M204.5,65.2h-0.6c-0.4,0-0.8,0.1-1.1,0.3c-0.3,0.2-0.5,0.4-0.7,0.7h-0.1v-0.6c0-0.2-0.1-0.3-0.3-0.3h-1.1
			c-0.2,0-0.3,0.1-0.3,0.3v8.1c0,0.2,0.1,0.3,0.3,0.3h1.1c0.2,0,0.3-0.1,0.3-0.3v-5.4c0-1,0.5-1.5,1.4-1.5h1c0.2,0,0.3-0.1,0.3-0.3
			v-0.9C204.8,65.3,204.7,65.2,204.5,65.2z"/>
	</g>
	<path class="st2" d="M66.5,34.4c-2.5,4.4-7.2,7.3-12.6,7.3c-4,0-7.6-1.6-10.2-4.2l6.6-9.5l5.9,3.2c0.5,0.3,1,0.1,1.3-0.3l8-12.5
		c0.4,0.6,0.9,1.2,1.2,1.8c0.3-0.6,0.6-1.2,0.9-1.7c0.1-0.1,0.1-0.2,0.2-0.3c-3-4.5-8.1-7.5-13.9-7.5c-6,0-11.3,3.2-14.2,8
		c-0.2,0.3-0.4,0.7-0.6,1c-0.2,0.4-0.4,0.7-0.5,1.1c-0.8,2-1.3,4.1-1.3,6.3c0,2.3,0.5,4.4,1.3,6.4c0.2,0.4,0.3,0.7,0.5,1.1
		c0.2,0.3,0.4,0.7,0.6,1c2.9,4.8,8.1,8,14.2,8c5.7,0,10.7-2.9,13.7-7.2c-0.1-0.1-0.1-0.2-0.2-0.3C67.1,35.6,66.8,35,66.5,34.4z
		 M56.3,29.1l-5.9-3.2c-0.4-0.2-1-0.1-1.3,0.3L42.4,36c-0.6-0.8-1.1-1.6-1.5-2.5c-0.2-0.4-0.4-0.9-0.6-1.3c-0.2-0.6-0.4-1.2-0.5-1.8
		c-0.2-1-0.4-2.1-0.4-3.2c0-1.1,0.1-2.2,0.4-3.3c0.1-0.6,0.3-1.2,0.5-1.8c0.2-0.4,0.3-0.9,0.6-1.3c2.4-4.9,7.3-8.2,13.1-8.2
		c4,0,7.6,1.6,10.2,4.2L56.3,29.1z"/>
	<path class="st3" d="M83,11c-5.7,0-10.7,2.9-13.7,7.2c-0.3,0.4-0.5,0.8-0.8,1.3c-0.1,0.1-0.1,0.2-0.2,0.4c-0.3,0.7-0.6,1.3-0.9,2.1
		c-0.6,1.7-1,3.6-1,5.6c0,1.8,0.3,3.6,0.9,5.3c0.2,0.7,0.5,1.4,0.9,2.1c0.1,0.1,0.1,0.2,0.2,0.4c0.2,0.4,0.5,0.9,0.8,1.3
		c3,4.5,8.1,7.5,13.9,7.5c9.1,0,16.5-7.4,16.5-16.5S92.1,11,83,11z M79.1,27.6h-1.3c-0.7,0-1.3-0.8-1.3-1.7c0-0.9,0.6-1.7,1.3-1.7
		c0.7,0,1.3,0.8,1.3,1.7V27.6z M81.2,41.9V29.8h3.5v12.2c-0.6,0.1-1.2,0.1-1.8,0.1C82.4,42.1,81.8,42,81.2,41.9z M86.9,41.5V29.8
		h1.3c1.9,0,3.4-1.7,3.4-3.8s-1.5-3.8-3.4-3.8c-1.9,0-3.4,1.7-3.4,3.8v1.7h-3.5V26c0-2.1-1.5-3.8-3.4-3.8c-1.9,0-3.4,1.7-3.4,3.8
		s1.5,3.8,3.4,3.8h1.3v11.7c-3.8-1.1-7-3.6-8.9-7c-0.3-0.5-0.5-1.1-0.8-1.7c-0.1-0.2-0.1-0.3-0.2-0.5c-0.5-1.5-0.8-3.1-0.8-4.8
		c0-1.8,0.3-3.5,0.9-5.1c0.1-0.2,0.1-0.3,0.2-0.5c0.2-0.6,0.5-1.1,0.8-1.6C72.9,15.9,77.6,13,83,13c8,0,14.5,6.5,14.5,14.5
		C97.5,34.2,93,39.8,86.9,41.5z M86.9,27.6V26c0-0.9,0.6-1.7,1.3-1.7c0.7,0,1.3,0.8,1.3,1.7c0,0.9-0.6,1.7-1.3,1.7H86.9z"/>
	<path class="st4" d="M37.8,35c-0.7,1.1-1.6,2.2-2.7,3.2c-2.5,2.2-5.6,3.4-8.7,3.6l6.9-14.1c0.1-0.3,0.1-0.6,0-0.9l-6.8-14
		c3.7,0.3,7.3,1.9,9.9,4.9c0.5,0.6,0.9,1.2,1.3,1.8c0.2-0.3,0.3-0.7,0.5-1c0.2-0.3,0.4-0.6,0.6-0.9c-0.3-0.4-0.6-0.8-0.9-1.2
		c-3.1-3.6-7.7-5.6-12.4-5.6c-4,0-7.9,1.5-10.9,4.1c-3.3,2.9-5.3,6.9-5.6,11.3c-0.3,4.4,1.2,8.7,4.1,12c3.1,3.6,7.7,5.6,12.4,5.6
		c4,0,7.9-1.5,10.9-4.1c0.9-0.8,1.8-1.7,2.5-2.7c-0.2-0.3-0.4-0.6-0.6-0.9C38.2,35.7,38,35.3,37.8,35z M31.4,27.2l-7.1,14.5
		c-0.5,0-0.9-0.1-1.4-0.2l6.8-13.8c0.1-0.3,0.1-0.6,0-0.9l-6.7-13.9c0.5-0.1,1-0.2,1.5-0.2L31.4,27.2z M21.4,13.3L21,13.5l6.7,13.7
		l-6.7,13.7l0.4,0.2c-2.5-0.8-4.8-2.2-6.7-4.3c-5.3-6-4.7-15.2,1.3-20.5C17.6,14.9,19.5,13.9,21.4,13.3z"/>
</g>
</svg>
